<svg width="67" height="67" viewBox="0 0 67 67" fill="none" xmlns="http://www.w3.org/2000/svg">
<g clip-path="url(#clip0_1111_295)">
<path d="M37.6875 14.3036V46.0631C37.6875 48.3794 35.8162 50.2506 33.5 50.2506C31.1838 50.2506 29.3125 48.3794 29.3125 46.0631V14.3036L19.7074 23.9086C18.0717 25.5444 15.4152 25.5444 13.7795 23.9086C12.1438 22.2729 12.1438 19.6165 13.7795 17.9807L30.5295 1.23071C32.1652 -0.405029 34.8217 -0.405029 36.4574 1.23071L53.2074 17.9807C54.8432 19.6165 54.8432 22.2729 53.2074 23.9086C51.5717 25.5444 48.9152 25.5444 47.2795 23.9086L37.6875 14.3036ZM8.375 46.0631H25.125C25.125 50.6825 28.8807 54.4381 33.5 54.4381C38.1193 54.4381 41.875 50.6825 41.875 46.0631H58.625C63.2443 46.0631 67 49.8188 67 54.4381V58.6256C67 63.245 63.2443 67.0006 58.625 67.0006H8.375C3.75566 67.0006 0 63.245 0 58.6256V54.4381C0 49.8188 3.75566 46.0631 8.375 46.0631ZM56.5312 59.6725C57.3642 59.6725 58.163 59.3416 58.752 58.7526C59.341 58.1637 59.6719 57.3648 59.6719 56.5319C59.6719 55.6989 59.341 54.9001 58.752 54.3111C58.163 53.7222 57.3642 53.3913 56.5312 53.3913C55.6983 53.3913 54.8995 53.7222 54.3105 54.3111C53.7215 54.9001 53.3906 55.6989 53.3906 56.5319C53.3906 57.3648 53.7215 58.1637 54.3105 58.7526C54.8995 59.3416 55.6983 59.6725 56.5312 59.6725Z" fill="#2EC5B6"/>
</g>
<defs>
<clipPath id="clip0_1111_295">
<rect width="67" height="67" fill="white"/>
</clipPath>
</defs>
</svg>
