<svg width="42" height="47" viewBox="0 0 42 47" fill="none" xmlns="http://www.w3.org/2000/svg">
<path d="M0 23.0846H2.13557L6.40671 6L15.6608 40.1691L19.932 23.0846H22.0676" stroke="#2EC5B6" stroke-width="3"/>
<path d="M29.9713 33.0628L34.2263 25.6946L37.5787 31.5006C35.9648 32.6655 34.0242 33.2909 32.0338 33.2878C31.3258 33.2878 30.6357 33.21 29.9713 33.0628ZM28.1328 32.4525C26.9134 31.9012 25.8239 31.0989 24.9355 30.098C24.0471 29.0971 23.3798 27.9201 22.9771 26.6438H31.4862L28.1328 32.4516V32.4525ZM22.5898 24.7455C22.454 23.4141 22.6023 22.069 23.0249 20.7992C23.4476 19.5294 24.1349 18.3637 25.0415 17.3792L29.2927 24.7455H22.5898ZM26.4899 16.0922C28.1035 14.9275 30.0437 14.302 32.0338 14.3049C32.7419 14.3049 33.4319 14.3828 34.0963 14.5299L29.8413 21.8981L26.4899 16.0922ZM35.9348 15.1402C37.1542 15.6915 38.2437 16.4938 39.1321 17.4947C40.0205 18.4957 40.6878 19.6727 41.0905 20.9489H32.5815L35.9348 15.1402ZM41.4778 22.8472C41.6136 24.1786 41.4653 25.5237 41.0427 26.7935C40.6201 28.0634 39.9327 29.229 39.0261 30.2135L34.7749 22.8472H41.4797H41.4778Z" fill="#FF9D60"/>
</svg>
